# Blender v2.82 (sub 7) OBJ File: 'plane_inside_UV-mapped.blend'
# www.blender.org
mtllib inside_2.mtl
v 0.450040 3.478301 1.114020
v 0.257563 3.234214 1.234120
v 0.489569 3.122496 1.089355
v 0.452125 2.726975 1.112719
v 0.257563 2.726840 1.234120
v 0.293443 3.328863 1.211732
v 0.257563 2.980249 1.234120
v 0.253725 2.726840 1.227970
v 0.253725 2.980249 1.227970
v 0.448288 2.726975 1.106570
v 0.289605 3.328863 1.205582
v 0.253725 3.234214 1.227970
v 0.446203 3.478301 1.107871
v 0.257563 2.744667 1.234120
v 0.440589 2.812538 1.119918
v 0.253725 2.744667 1.227970
v 0.356659 2.726908 1.172287
v 0.373557 3.418273 1.161743
v 0.412198 3.104269 1.137632
v 0.390059 3.007934 1.151447
v 0.352822 2.726908 1.166137
v 0.369720 3.418273 1.155594
v 0.384903 2.835382 1.154664
v 0.275431 3.242094 1.214426
v 0.299106 3.304547 1.199654
v -0.209728 3.234214 0.485211
v -0.173848 3.328863 0.462823
v -0.110631 2.726908 0.423378
v -0.139649 2.726908 0.376873
v -0.238745 2.726840 0.438706
v -0.044183 2.726975 0.317306
v -0.209728 2.726840 0.485211
v -0.209728 2.980249 0.485211
v -0.017250 3.478301 0.365112
v -0.209728 2.744667 0.485211
v -0.188022 3.242094 0.471668
v -0.015165 2.726975 0.363811
v -0.093733 3.418273 0.412835
v -0.164347 3.304547 0.456895
v -0.117075 3.370854 0.362788
v -0.174947 3.306267 0.398898
v -0.210482 2.741508 0.421070
v -0.210482 2.727152 0.421070
v -0.210482 3.222637 0.421070
v -0.210482 3.018127 0.421070
v -0.055485 3.419193 0.324359
v -0.181464 2.727152 0.467576
v -0.181464 3.018127 0.467576
v -0.181464 3.222637 0.467576
v -0.026468 3.419193 0.370864
v -0.181464 2.741508 0.467576
v -0.170469 3.292018 0.396104
v -0.193003 3.228982 0.410164
v -0.163985 3.228982 0.456669
v -0.145930 3.306267 0.445404
v -0.088057 3.370854 0.409293
v -0.141451 3.292018 0.442609
v 0.449731 3.465301 1.121528
v 0.444530 2.739970 1.108915
v 0.451834 2.725767 1.120620
v 0.298279 3.321034 1.200170
v 0.306675 3.321034 1.213627
v 0.273606 2.757050 1.234261
v 0.273606 2.984481 1.234261
v 0.363846 2.725702 1.175521
v 0.380514 3.407350 1.167555
v 0.273606 3.229659 1.234261
v 0.272512 2.725637 1.232509
v 0.265209 2.739840 1.220804
v 0.265209 2.984481 1.220804
v 0.265209 3.229659 1.220804
v 0.442609 3.465301 1.110114
v 0.356543 2.739905 1.163816
v 0.265209 2.757050 1.220804
v 0.372117 3.407350 1.154098
v 0.645653 3.478301 0.991964
v 0.838130 3.234214 0.871863
v 0.616222 3.110414 1.010328
v 0.643568 2.726975 0.993264
v 0.838130 2.726840 0.871863
v 0.802250 3.328863 0.894252
v 0.838130 2.980249 0.871863
v 0.547846 3.478301 1.052992
v 0.551079 3.084997 1.050975
v 0.547846 2.727003 1.052992
v 0.834295 2.726840 0.865717
v 0.834295 2.980249 0.865717
v 0.639732 2.726975 0.987116
v 0.544010 3.478301 1.046843
v 0.798414 3.328863 0.888105
v 0.834295 3.234214 0.865717
v 0.544010 2.727003 1.046843
v 0.641817 3.478301 0.985815
v 0.838130 2.744667 0.871863
v 0.518166 2.799061 1.071511
v 0.600544 2.804131 1.020110
v 0.834295 2.744667 0.865717
v 0.739034 2.726908 0.933697
v 0.722136 3.418273 0.944240
v 0.667770 3.024605 0.978163
v 0.682490 2.957098 0.968978
v 0.735198 2.726908 0.927549
v 0.718300 3.418273 0.938093
v 0.669270 2.817412 0.977227
v 0.812589 3.242094 0.879260
v 0.788914 3.304547 0.894033
v 0.370842 2.980249 0.122958
v 0.080557 3.478301 0.304085
v 0.176279 2.726975 0.244358
v 0.334961 3.328863 0.145346
v 0.080557 2.727003 0.304085
v 0.271745 2.726908 0.184791
v 0.349136 3.242094 0.136501
v 0.325461 3.304547 0.151274
v 0.242727 2.726908 0.138285
v 0.341824 2.726840 0.076453
v 0.051539 2.727003 0.257579
v 0.147261 2.726975 0.197852
v 0.370842 2.726840 0.122958
v 0.370842 3.234214 0.122958
v 0.178364 3.478301 0.243057
v 0.370842 2.744667 0.122958
v 0.254847 3.418273 0.195334
v 0.220154 3.370854 0.152370
v 0.278026 3.306267 0.116260
v 0.313560 2.741508 0.094088
v 0.313560 2.727152 0.094088
v 0.313560 3.222637 0.094088
v 0.313560 3.018127 0.094088
v 0.051539 3.419193 0.257579
v 0.158564 3.419193 0.190800
v 0.342578 2.727152 0.140593
v 0.342578 3.018127 0.140593
v 0.080557 3.419193 0.304085
v 0.342578 3.222637 0.140593
v 0.187581 3.419193 0.237305
v 0.342578 2.741508 0.140593
v 0.273548 3.292018 0.119055
v 0.296081 3.228982 0.104994
v 0.325099 3.228982 0.151500
v 0.307043 3.306267 0.162766
v 0.249171 3.370854 0.198876
v 0.302565 3.292018 0.165560
v 0.551132 3.465301 1.058258
v 0.652533 3.465301 0.994987
v 0.643490 2.739970 0.984772
v 0.650793 2.725767 0.996477
v 0.789741 3.321034 0.893516
v 0.798138 3.321034 0.906973
v 0.831208 2.757050 0.886339
v 0.831208 2.984481 0.886339
v 0.738780 2.725702 0.941576
v 0.724300 3.407350 0.953046
v 0.831208 3.229659 0.886339
v 0.551313 2.725794 1.058548
v 0.544010 2.739997 1.046843
v 0.830114 2.725637 0.884587
v 0.822811 2.739840 0.872882
v 0.822811 2.984481 0.872882
v 0.544010 3.465301 1.046843
v 0.822811 3.229659 0.872882
v 0.645411 3.465301 0.983573
v 0.731477 2.739905 0.929871
v 0.822811 2.757050 0.872882
v 0.715903 3.407350 0.939589
v 0.608383 2.957273 1.015219
v 0.534623 2.942029 1.061243
v 0.465079 2.967517 1.104636
vt 0.868614 0.925598
vt 0.860318 0.925598
vt 0.860318 0.654295
vt 0.868615 0.654295
vt 0.318928 0.343200
vt 0.326716 0.324143
vt 0.354106 0.322285
vt 0.349557 0.355433
vt 0.356035 0.323896
vt 0.351662 0.354713
vt 0.149741 0.361167
vt 0.237756 0.338205
vt 0.203957 0.393876
vt 0.177575 0.385586
vt 0.267100 0.344827
vt 0.277040 0.394889
vt 0.340628 0.380383
vt 0.338574 0.380709
vt 0.332030 0.295562
vt 0.356930 0.284906
vt 0.131761 0.333623
vt 0.124634 0.304617
vt 0.239757 0.288119
vt 0.230368 0.311088
vt 0.718307 0.046925
vt 0.754504 0.046925
vt 0.754504 0.318227
vt 0.718308 0.318227
vt 0.346931 0.394252
vt 0.343728 0.387968
vt 0.356657 0.355853
vt 0.359734 0.357826
vt 0.469584 0.825634
vt 0.740886 0.825634
vt 0.740886 0.861359
vt 0.469584 0.861359
vt 0.203711 0.398573
vt 0.175478 0.389798
vt 0.335081 0.382753
vt 0.334856 0.387145
vt 0.276281 0.399376
vt 0.147618 0.365008
vt 0.129516 0.337423
vt 0.170890 0.397353
vt 0.173065 0.393956
vt 0.202960 0.403266
vt 0.201807 0.407356
vt 0.121491 0.338059
vt 0.125668 0.339242
vt 0.143996 0.368092
vt 0.140609 0.369032
vt 0.683437 0.046925
vt 0.683438 0.318227
vt 0.359211 0.285034
vt 0.830824 0.654295
vt 0.839120 0.654295
vt 0.839120 0.925598
vt 0.830826 0.925598
vt 0.740886 0.894922
vt 0.469584 0.894922
vt 0.419212 0.651947
vt 0.419211 0.380645
vt 0.424735 0.380645
vt 0.424735 0.651947
vt 0.497739 0.380645
vt 0.497739 0.651947
vt 0.576440 0.380645
vt 0.576439 0.651947
vt 0.648474 0.318227
vt 0.648474 0.046925
vt 0.740886 0.935221
vt 0.469584 0.935220
vt 0.056356 0.186300
vt 0.064711 0.189607
vt 0.060709 0.192345
vt 0.049183 0.187299
vt 0.648474 0.029938
vt 0.683437 0.029938
vt 0.154200 0.033110
vt 0.163107 0.038021
vt 0.115754 0.108219
vt 0.113965 0.092231
vt 0.023085 0.253878
vt 0.040520 0.248497
vt 0.039125 0.286751
vt 0.022407 0.286185
vt 0.157252 0.028628
vt 0.165571 0.034412
vt 0.063756 0.161043
vt 0.074635 0.166458
vt 0.074874 0.173730
vt 0.066992 0.168010
vt 0.049134 0.222075
vt 0.035231 0.224667
vt 0.718307 0.029938
vt 0.754504 0.029938
vt 0.075744 0.203655
vt 0.063881 0.227819
vt 0.129130 0.117255
vt 0.092789 0.172878
vt 0.176898 0.047462
vt 0.179369 0.043849
vt 0.056558 0.251455
vt 0.090047 0.179966
vt 0.078954 0.199287
vt 0.054841 0.287283
vt 0.116647 0.305727
vt 0.120029 0.305257
vt 0.336962 0.390807
vt 0.276683 0.403731
vt 0.365995 0.285480
vt 0.362291 0.324740
vt 0.341909 0.393664
vt 0.113009 0.306233
vt 0.278200 0.407356
vt 0.366628 0.323935
vt 0.370482 0.285805
vt 0.960501 0.653928
vt 0.960501 0.925234
vt 0.952205 0.925234
vt 0.952206 0.653928
vt 0.325123 0.233217
vt 0.359577 0.204371
vt 0.358298 0.245102
vt 0.330531 0.262545
vt 0.361942 0.206050
vt 0.360734 0.243599
vt 0.133541 0.243145
vt 0.154208 0.211494
vt 0.178441 0.195726
vt 0.253283 0.243006
vt 0.274747 0.233758
vt 0.255981 0.172133
vt 0.361202 0.161834
vt 0.363440 0.166860
vt 0.123600 0.274738
vt 0.229307 0.265991
vt 0.578640 0.046925
vt 0.578640 0.318227
vt 0.542443 0.318227
vt 0.542444 0.046925
vt 0.375559 0.162400
vt 0.373915 0.204896
vt 0.369138 0.206316
vt 0.370642 0.167145
vt 0.469584 0.789909
vt 0.740886 0.789909
vt 0.150946 0.207884
vt 0.176814 0.190962
vt 0.332416 0.154488
vt 0.253337 0.167492
vt 0.326968 0.150263
vt 0.120393 0.271673
vt 0.130413 0.239971
vt 0.144250 0.201681
vt 0.172225 0.182534
vt 0.174643 0.186376
vt 0.147374 0.204431
vt 0.112467 0.273253
vt 0.122464 0.237976
vt 0.126027 0.237956
vt 0.116178 0.270965
vt 0.613510 0.046925
vt 0.613510 0.318227
vt 0.354715 0.161584
vt 0.922712 0.925234
vt 0.922712 0.653927
vt 0.931008 0.653927
vt 0.931007 0.925234
vt 0.469584 0.756346
vt 0.740886 0.756345
vt 0.609754 0.383383
vt 0.615279 0.383383
vt 0.615279 0.654685
vt 0.609754 0.654685
vt 0.688282 0.383383
vt 0.688282 0.654685
vt 0.766983 0.383383
vt 0.766983 0.654685
vt 0.469584 0.716047
vt 0.740886 0.716047
vt 0.049711 0.388024
vt 0.042522 0.386643
vt 0.054375 0.382115
vt 0.058300 0.385094
vt 0.613510 0.029938
vt 0.154739 0.537263
vt 0.111122 0.480245
vt 0.112033 0.464126
vt 0.163393 0.531845
vt 0.020899 0.318465
vt 0.037930 0.325011
vt 0.158048 0.541585
vt 0.166064 0.535324
vt 0.057042 0.414045
vt 0.060134 0.406762
vt 0.068052 0.400701
vt 0.067990 0.408210
vt 0.031046 0.348430
vt 0.044743 0.351934
vt 0.578640 0.029938
vt 0.542444 0.029938
vt 0.059830 0.347224
vt 0.069952 0.372290
vt 0.085066 0.400555
vt 0.124923 0.454314
vt 0.176691 0.521614
vt 0.179369 0.525097
vt 0.054131 0.323146
vt 0.072259 0.375761
vt 0.082836 0.395157
vt 0.252014 0.162558
vt 0.325847 0.145090
vt 0.367825 0.243872
vt 0.337358 0.147662
vt 0.331600 0.143860
vt 0.338377 0.152804
vt 0.328958 0.139668
vt 0.334957 0.138328
vt 0.252193 0.157986
vt 0.372424 0.245652
vt 0.278399 0.316625
vt 0.285176 0.290424
vt 0.278173 0.262698
vn 0.2497 -0.9557 -0.1558
vn -0.5294 0.0000 -0.8484
vn -0.0954 -0.9834 -0.1541
vn -0.0957 -0.9834 -0.1545
vn -0.0005 1.0000 0.0003
vn 0.0000 -1.0000 0.0000
vn 0.0239 0.2169 0.9759
vn -0.0088 0.0000 1.0000
vn 0.1336 0.5102 0.8496
vn -0.5293 0.0000 -0.8484
vn -0.0958 -0.9834 -0.1541
vn 0.7706 0.4183 -0.4808
vn 0.7746 -0.4080 -0.4833
vn 0.4702 -0.8324 -0.2934
vn 0.8484 0.0000 -0.5294
vn -0.0002 1.0000 0.0001
vn 0.5833 -0.7261 -0.3640
vn 0.5294 -0.0000 0.8484
vn 0.7818 -0.3883 -0.4878
vn 0.7956 0.3474 -0.4964
vn 0.3793 0.6968 0.6088
vn 0.3796 0.6968 0.6086
vn 0.5974 -0.7100 -0.3728
vn 0.7804 -0.3924 -0.4869
vn 0.4853 -0.8202 -0.3028
vn 0.0606 -0.0368 0.9975
vn 0.4777 0.4308 0.7656
vn 0.0624 0.4361 0.8977
vn -0.2497 -0.9557 0.1558
vn -0.0964 -0.9834 -0.1534
vn -0.0966 -0.9834 -0.1537
vn 0.0005 1.0000 -0.0003
vn 0.8662 0.2169 0.4502
vn 0.9021 0.0000 0.4314
vn 0.7045 0.5103 0.4933
vn -0.0962 -0.9834 -0.1538
vn -0.7706 0.4183 0.4808
vn -0.7746 -0.4080 0.4833
vn -0.4702 -0.8324 0.2934
vn -0.8484 0.0000 0.5294
vn 0.0002 1.0000 -0.0001
vn -0.5833 -0.7261 0.3640
vn -0.7818 -0.3883 0.4878
vn -0.7956 0.3474 0.4964
vn 0.3801 0.6968 0.6083
vn 0.3798 0.6968 0.6085
vn -0.5974 -0.7100 0.3728
vn -0.7804 -0.3924 0.4869
vn -0.4853 -0.8202 0.3028
vn 0.8694 -0.0368 0.4927
vn 0.4777 0.4309 0.7656
vn 0.7790 0.4362 0.4505
vn 0.9022 0.0000 0.4314
usemtl None
s off
f 26/1/1 36/2/1 24/3/1 12/4/1
f 23/5/2 15/6/2 4/7/2 17/8/2
f 4/7/3 60/9/3 65/10/3 17/8/3
f 18/11/2 19/12/2 2/13/2 6/14/2
f 20/15/2 7/16/2 2/13/2 19/12/2
f 17/8/4 65/10/4 68/17/4 5/18/4
f 95/19/2 85/20/2 4/7/2 15/6/2
f 1/21/2 83/22/2 84/23/2 3/24/2
f 28/25/5 32/26/5 8/27/5 21/28/5
f 8/29/2 69/30/2 73/31/2 21/32/2
f 108/33/6 89/34/6 13/35/6 34/36/6
f 2/13/7 67/37/7 62/38/7 6/14/7
f 14/39/8 63/40/8 64/41/8 7/16/8
f 18/11/9 66/42/9 58/43/9 1/21/9
f 11/44/2 61/45/2 71/46/2 12/47/2
f 13/48/10 72/49/10 75/50/10 22/51/10
f 7/16/2 20/15/2 23/5/2 14/39/2
f 22/51/2 75/50/2 61/45/2 11/44/2
f 37/52/5 28/25/5 21/28/5 10/53/5
f 85/20/11 155/54/11 60/9/11 4/7/11
f 1/21/2 3/24/2 19/12/2 18/11/2
f 14/39/2 23/5/2 17/8/2 5/18/2
f 11/55/12 25/56/12 39/57/12 27/58/12
f 25/56/13 24/3/13 36/2/13 39/57/13
f 13/35/14 22/59/14 38/60/14 34/36/14
f 8/61/15 32/62/15 35/63/15 16/64/15
f 16/64/15 35/63/15 33/65/15 9/66/15
f 9/66/15 33/65/15 26/67/15 12/68/15
f 92/69/16 111/70/16 37/52/16 10/53/16
f 22/59/17 11/71/17 27/72/17 38/60/17
f 39/73/18 57/74/18 55/75/18 27/76/18
f 111/70/16 117/77/16 31/78/16 37/52/16
f 35/79/18 51/80/18 48/81/18 33/82/18
f 34/83/18 50/84/18 134/85/18 108/86/18
f 32/87/18 47/88/18 51/80/18 35/79/18
f 26/89/18 49/90/18 54/91/18 36/92/18
f 27/76/18 55/75/18 56/93/18 38/94/18
f 31/78/5 29/95/5 28/25/5 37/52/5
f 38/94/18 56/93/18 50/84/18 34/83/18
f 29/95/5 30/96/5 32/26/5 28/25/5
f 36/92/18 54/91/18 57/74/18 39/73/18
f 56/93/17 55/75/17 41/97/17 40/98/17
f 48/81/15 45/99/15 44/100/15 49/90/15
f 51/80/15 42/101/15 45/99/15 48/81/15
f 47/88/15 43/102/15 42/101/15 51/80/15
f 50/84/14 56/93/14 40/98/14 46/103/14
f 57/74/19 54/91/19 53/104/19 52/105/19
f 55/75/20 57/74/20 52/105/20 41/97/20
f 130/106/6 134/85/6 50/84/6 46/103/6
f 44/100/1 53/104/1 54/91/1 49/90/1
f 33/82/18 48/81/18 49/90/18 26/89/18
f 160/107/6 144/108/6 58/43/6 72/49/6
f 73/31/21 69/30/21 68/17/21 65/10/21
f 63/40/15 74/109/15 70/110/15 64/41/15
f 64/41/15 70/110/15 71/46/15 67/37/15
f 155/54/22 156/111/22 59/112/22 60/9/22
f 66/42/23 62/38/23 61/45/23 75/50/23
f 62/38/24 67/37/24 71/46/24 61/45/24
f 68/17/15 69/30/15 74/109/15 63/40/15
f 58/43/25 66/42/25 75/50/25 72/49/25
f 59/112/21 73/31/21 65/10/21 60/9/21
f 5/18/26 68/17/26 63/40/26 14/39/26
f 1/21/27 58/43/27 144/108/27 83/22/27
f 16/113/2 74/109/2 69/30/2 8/29/2
f 6/14/28 62/38/28 66/42/28 18/11/28
f 7/16/8 64/41/8 67/37/8 2/13/8
f 89/114/2 160/107/2 72/49/2 13/48/2
f 12/47/2 71/46/2 70/110/2 9/115/2
f 9/115/2 70/110/2 74/109/2 16/113/2
f 10/116/2 59/112/2 156/111/2 92/117/2
f 21/32/2 73/31/2 59/112/2 10/116/2
f 120/118/29 91/119/29 105/120/29 113/121/29
f 104/122/2 98/123/2 79/124/2 96/125/2
f 79/124/30 98/123/30 152/126/30 147/127/30
f 99/128/2 81/129/2 77/130/2 100/131/2
f 101/132/2 100/131/2 77/130/2 82/133/2
f 98/123/31 80/134/31 157/135/31 152/126/31
f 95/19/2 96/125/2 79/124/2 85/20/2
f 76/136/2 78/137/2 84/23/2 83/22/2
f 112/138/32 102/139/32 86/140/32 119/141/32
f 86/142/2 102/143/2 163/144/2 158/145/2
f 108/33/6 121/146/6 93/147/6 89/34/6
f 77/130/33 81/129/33 149/148/33 154/149/33
f 94/150/34 82/133/34 151/151/34 150/152/34
f 99/128/35 76/136/35 145/153/35 153/154/35
f 90/155/2 91/156/2 161/157/2 148/158/2
f 93/159/2 103/160/2 165/161/2 162/162/2
f 82/133/2 94/150/2 104/122/2 101/132/2
f 103/160/2 90/155/2 148/158/2 165/161/2
f 109/163/32 88/164/32 102/139/32 112/138/32
f 85/20/36 79/124/36 147/127/36 155/54/36
f 76/136/2 99/128/2 100/131/2 78/137/2
f 94/165/2 80/134/2 98/123/2 104/122/2
f 90/166/37 110/167/37 114/168/37 106/169/37
f 106/169/38 114/168/38 113/121/38 105/120/38
f 93/147/39 121/146/39 123/170/39 103/171/39
f 86/172/40 97/173/40 122/174/40 119/175/40
f 97/173/40 87/176/40 107/177/40 122/174/40
f 87/176/40 91/178/40 120/179/40 107/177/40
f 92/69/41 88/164/41 109/163/41 111/70/41
f 103/171/42 123/170/42 110/180/42 90/181/42
f 114/182/18 110/183/18 141/184/18 143/185/18
f 111/70/41 109/163/41 118/186/41 117/77/41
f 122/187/18 107/188/18 133/189/18 137/190/18
f 121/191/18 108/86/18 134/85/18 136/192/18
f 119/193/18 122/187/18 137/190/18 132/194/18
f 120/195/18 113/196/18 140/197/18 135/198/18
f 110/183/18 123/199/18 142/200/18 141/184/18
f 118/186/32 109/163/32 112/138/32 115/201/32
f 123/199/18 121/191/18 136/192/18 142/200/18
f 115/201/32 112/138/32 119/141/32 116/202/32
f 113/196/18 114/182/18 143/185/18 140/197/18
f 142/200/42 124/203/42 125/204/42 141/184/42
f 133/189/40 135/198/40 128/205/40 129/206/40
f 137/190/40 133/189/40 129/206/40 126/207/40
f 132/194/40 137/190/40 126/207/40 127/208/40
f 136/192/39 131/209/39 124/203/39 142/200/39
f 143/185/43 138/210/43 139/211/43 140/197/43
f 141/184/44 125/204/44 138/210/44 143/185/44
f 130/106/6 131/209/6 136/192/6 134/85/6
f 128/205/29 135/198/29 140/197/29 139/211/29
f 107/188/18 120/195/18 135/198/18 133/189/18
f 160/107/6 162/162/6 145/153/6 144/108/6
f 163/144/45 152/126/45 157/135/45 158/145/45
f 150/152/40 151/151/40 159/212/40 164/213/40
f 151/151/40 154/149/40 161/157/40 159/212/40
f 155/54/46 147/127/46 146/214/46 156/111/46
f 153/154/47 165/161/47 148/158/47 149/148/47
f 149/148/48 148/158/48 161/157/48 154/149/48
f 157/215/40 150/152/40 164/213/40 158/216/40
f 145/153/49 162/162/49 165/161/49 153/154/49
f 146/214/45 147/127/45 152/126/45 163/144/45
f 80/217/50 94/150/50 150/152/50 157/215/50
f 76/136/51 83/22/51 144/108/51 145/153/51
f 97/218/2 86/219/2 158/216/2 164/213/2
f 81/129/52 99/128/52 153/154/52 149/148/52
f 82/133/53 77/130/53 154/149/53 151/151/53
f 89/114/2 93/159/2 162/162/2 160/107/2
f 91/156/2 87/220/2 159/212/2 161/157/2
f 87/220/2 97/218/2 164/213/2 159/212/2
f 88/221/2 92/117/2 156/111/2 146/214/2
f 102/143/2 88/221/2 146/214/2 163/144/2
f 3/24/2 168/222/2 20/15/2 19/12/2
f 15/6/2 23/5/2 20/15/2 168/222/2
f 15/6/2 168/222/2 167/223/2 95/19/2
f 95/19/2 167/223/2 166/224/2 96/125/2
f 96/125/2 166/224/2 101/132/2 104/122/2
f 3/24/2 84/23/2 167/223/2 168/222/2
f 84/23/2 78/137/2 166/224/2 167/223/2
f 78/137/2 100/131/2 101/132/2 166/224/2
