# Blender v2.81 (sub 16) OBJ File: 'Rocks.blend'
# www.blender.org
mtllib Small_Rock_MSH.mtl
o LP_rock_Small_Plane.002
v -0.540937 -0.202619 -5.885594
v -0.270300 -0.622218 -6.060995
v -0.902401 -0.156456 -6.236665
v -0.669054 -0.543168 -6.457547
v -1.168974 -0.049879 -6.240216
v -1.039911 -0.379004 -6.323157
v -1.519122 -0.090519 -6.440026
v -1.124646 -0.531999 -6.685531
v -0.176220 -0.795349 -6.127125
v -0.443717 -0.743098 -6.513560
v -0.174654 -1.173531 -6.094865
v -0.361522 -1.205534 -6.574864
v 0.076764 -0.935405 -5.856784
v 0.144697 -1.109187 -5.933749
v -0.307399 -0.537632 -5.892331
v -0.236694 -0.689627 -5.828155
v -0.503565 -0.186224 -5.594003
v -0.364817 -0.519036 -5.634277
v -0.943326 -0.721317 -6.696605
v -1.137111 -0.837392 -6.740617
v -0.662601 -0.786196 -6.657394
v -1.523687 -0.726653 -6.601790
v -0.956470 -1.138608 -6.684719
v -0.561813 -1.178044 -6.731358
v -1.721600 0.085001 -6.279718
v -1.438750 -1.083095 -6.652638
v -1.728531 -0.541103 -6.420579
v -1.908517 0.191684 -6.082489
v -2.035820 -0.455703 -6.284824
v -2.165525 0.323569 -5.949969
v -2.255234 -0.363760 -6.048683
v -1.396159 0.181782 -6.076239
v -1.187608 0.174543 -6.019455
v -0.905402 0.111544 -5.783003
v 0.126675 -0.917482 -5.737562
v -0.683460 -0.017735 -5.715178
v 0.219684 -1.051694 -5.749434
v 0.168476 -1.009773 -5.566242
v 0.341375 -1.118316 -5.558327
v -0.101296 -0.803198 -5.708772
v -0.070375 -0.858759 -5.596810
v -0.392035 0.000897 -5.251979
v -0.247263 -0.125123 -5.324853
v 0.311070 -0.865978 -5.311008
v 0.420808 -1.181338 -5.284099
v 0.143001 -0.616699 -5.308910
v -0.716502 0.004763 -5.507326
v -0.642276 0.253146 -5.088260
v -0.990443 0.064923 -5.504804
v -0.768735 0.302012 -4.974885
v -0.381391 -0.094339 -4.973524
v 0.178371 -0.791128 -4.932097
v 0.349449 -1.193683 -4.894821
v 0.026305 -0.540409 -4.975559
v -0.922860 0.169170 -4.715095
v -0.575366 0.193945 -4.915092
v -0.664995 0.197370 -4.799898
v -0.769660 0.072499 -4.655076
v -0.575925 -0.219176 -4.794843
v -0.690185 -0.279022 -4.562946
v -0.236399 -0.788836 -4.739541
v -0.024967 -1.068717 -4.639038
v -0.362913 -0.575697 -4.770284
v -1.031585 -0.164812 -4.584893
v -0.456494 -0.805271 -4.459729
v -0.507805 -1.035351 -4.495575
v -0.667216 -0.530835 -4.466659
v -0.707207 -0.923757 -4.401566
v -1.080505 -0.345301 -4.565547
v -0.869307 -0.717920 -4.565347
v -0.849748 -0.952161 -4.354487
v -1.117536 -0.479825 -4.601562
v -1.148486 -0.613853 -4.431241
v -1.380591 -0.392088 -4.506052
v -1.279542 0.032789 -4.785632
v -1.334599 -0.154609 -4.683583
v -1.391394 -0.225931 -4.614086
v -1.462614 0.060102 -4.746062
v -1.511709 -0.040137 -4.669513
v -1.593987 -0.116745 -4.614601
v -1.206620 0.144563 -5.505856
v -1.124664 0.218864 -5.171670
v -1.453889 0.207456 -5.852804
v -1.263684 0.208053 -5.723887
v -2.250570 0.785126 -5.693117
v -1.668904 0.176862 -5.951838
v -1.941362 0.555161 -5.929868
v -1.346604 0.524748 -5.449527
v -1.580626 0.469080 -5.760787
v -1.421524 0.507615 -5.630673
v -1.746357 0.486578 -5.866543
v -2.285800 0.726000 -4.777442
v -1.149547 0.186321 -5.093016
v -1.475397 0.474704 -4.985829
v -1.283343 0.074063 -4.983533
v -1.618277 0.480607 -4.906225
v -1.808666 0.237608 -4.790075
v -1.847438 0.568980 -4.805673
v -1.508142 -0.540243 -4.511086
v -1.840402 0.133823 -4.734344
v -1.971798 0.036383 -4.750797
v -1.758442 -0.374736 -4.679521
v -1.979101 -0.347781 -4.722648
v -1.110851 -1.000792 -4.244923
v -1.316751 -1.029179 -4.204318
v -1.366514 -0.701003 -4.351418
v -2.143050 0.082686 -4.872232
v -1.545839 -1.064763 -4.292583
v -1.563249 -0.806048 -4.459243
v -1.922052 -1.208387 -4.340430
v -1.820395 -0.725070 -4.579469
v -2.150810 -1.158748 -4.355457
v -2.076391 -0.717083 -4.598133
v -2.141758 -0.115987 -4.838416
v -2.243104 -1.065032 -4.439368
v -2.182561 -0.476348 -4.688697
v -2.072566 0.452116 -4.796484
v -2.284799 0.435171 -4.883810
v -2.067204 0.728423 -4.728505
v -1.899240 0.809161 -4.916226
v -2.113659 1.078174 -4.717651
v -2.282156 1.130223 -4.801188
v -2.019192 1.018110 -4.844539
v -2.202775 -0.157422 -5.022489
v -1.755797 0.643110 -4.932690
v -0.770643 -1.145662 -4.407105
v -0.958480 -1.179499 -4.321653
v -1.186391 -1.189719 -4.258471
v -1.403189 -1.210957 -4.287488
v -1.609358 -1.222459 -4.275368
v -2.233759 0.087972 -5.043377
v -2.329802 -1.057047 -4.691020
v -2.266334 -0.487009 -4.884468
v -2.358871 0.451480 -5.021581
v -1.666207 -0.911303 -6.612208
v -1.901142 -0.838407 -6.473201
v -2.226521 -0.705771 -6.254019
v -2.399546 -0.624192 -6.013683
v -2.350951 0.495916 -5.803130
v -2.372279 -0.060678 -5.896986
v -2.514764 0.597930 -5.524685
v -2.432680 0.844416 -5.649762
v -2.501900 0.891385 -5.564795
v -2.459884 -0.019945 -5.715238
v -2.431902 -0.629225 -5.410914
v -2.532657 -0.570751 -5.840592
v -2.594063 -0.501947 -5.622959
v -1.855953 -1.157897 -6.462918
v -2.205402 -1.246584 -6.226710
v -2.519687 -1.101223 -6.001425
v -2.646746 -0.947524 -5.804394
v -2.680943 -0.819588 -5.615238
v -2.511956 -0.995134 -5.491280
v -2.288456 -0.685381 -5.160047
v -2.326183 -1.167001 -5.122064
v -2.243893 -0.159388 -5.262003
v -2.349245 -0.147525 -5.467118
v -1.396745 0.545731 -5.186658
v -2.383358 0.126718 -5.454439
v -2.313574 0.112786 -5.235973
v -2.407454 0.743771 -4.952403
v -2.450935 0.523674 -5.306300
v -2.408015 0.495889 -5.135715
v -1.816185 0.721938 -5.297127
v -2.470623 0.999419 -5.333948
v -2.404348 1.067737 -5.100070
v -1.959773 0.716600 -5.523204
v -1.865567 0.714520 -5.416434
v -2.082531 0.738808 -5.631816
v -1.790232 0.698056 -5.133557
v -2.001535 0.865186 -5.222548
v -2.158566 0.858384 -5.449870
v -2.069836 0.850465 -5.364663
v -2.234222 0.861171 -5.523601
v -1.967497 0.864935 -5.068830
vt 0.733950 0.104952
vt 0.713501 0.077995
vt 0.746749 0.064536
vt 0.761685 0.091019
vt 0.768464 0.077054
vt 0.778390 0.094750
vt 0.776158 0.056162
vt 0.799253 0.084121
vt 0.705332 0.066780
vt 0.732082 0.052682
vt 0.689927 0.046303
vt 0.717908 0.026006
vt 0.678794 0.072889
vt 0.670582 0.061687
vt 0.712419 0.090374
vt 0.700947 0.087815
vt 0.723587 0.121921
vt 0.705556 0.105656
vt 0.746344 0.044887
vt 0.764243 0.046432
vt 0.762098 0.019411
vt 0.775608 0.038100
vt 0.734626 0.020779
vt 0.800590 0.045143
vt 0.795352 0.021509
vt 0.815097 0.059245
vt 0.811709 0.097196
vt 0.835236 0.067224
vt 0.824770 0.110012
vt 0.853294 0.078025
vt 0.841865 0.120095
vt 0.792662 0.110578
vt 0.780244 0.113303
vt 0.759792 0.123373
vt 0.742668 0.121616
vt 0.673470 0.079751
vt 0.664177 0.074229
vt 0.663123 0.087674
vt 0.649865 0.082774
vt 0.687110 0.088773
vt 0.680371 0.093393
vt 0.652664 0.106784
vt 0.633231 0.094839
vt 0.713143 0.148096
vt 0.703957 0.138411
vt 0.668709 0.118310
vt 0.739813 0.136075
vt 0.729217 0.167421
vt 0.758845 0.142522
vt 0.735019 0.177064
vt 0.699872 0.162974
vt 0.663816 0.142317
vt 0.644921 0.133578
vt 0.618106 0.118165
vt 0.719824 0.176232
vt 0.723045 0.186044
vt 0.737064 0.198192
vt 0.724358 0.200803
vt 0.864328 0.889745
vt 0.875310 0.897030
vt 0.877065 0.919430
vt 0.861961 0.915004
vt 0.855513 0.890182
vt 0.845581 0.908994
vt 0.828858 0.941486
vt 0.855168 0.938672
vt 0.824928 0.958737
vt 0.852211 0.953621
vt 0.820216 0.984641
vt 0.846691 0.974900
vt 0.880192 0.934928
vt 0.872618 0.952652
vt 0.875376 0.966031
vt 0.882054 0.887656
vt 0.895444 0.906403
vt 0.901834 0.916796
vt 0.895106 0.940677
vt 0.888543 0.957502
vt 0.905836 0.925078
vt 0.922932 0.917157
vt 0.912618 0.935778
vt 0.898254 0.958747
vt 0.915412 0.897852
vt 0.920878 0.903572
vt 0.908566 0.883074
vt 0.927201 0.889129
vt 0.933805 0.894583
vt 0.922208 0.880968
vt 0.773418 0.146138
vt 0.765097 0.172566
vt 0.796157 0.124635
vt 0.782905 0.133126
vt 0.809083 0.117458
vt 0.846228 0.146503
vt 0.830144 0.132410
vt 0.818841 0.133646
vt 0.808749 0.138596
vt 0.800394 0.146868
vt 0.795590 0.156899
vt 0.796846 0.172081
vt 0.764807 0.179714
vt 0.797478 0.185980
vt 0.804629 0.193728
vt 0.768945 0.194960
vt 0.905704 0.869773
vt 0.931754 0.847782
vt 0.947656 0.843259
vt 0.945275 0.865849
vt 0.947924 0.873865
vt 0.957892 0.878538
vt 0.962841 0.903388
vt 0.949027 0.908315
vt 0.934052 0.924456
vt 0.927299 0.960085
vt 0.915407 0.960419
vt 0.926717 0.939407
vt 0.941439 0.940052
vt 0.942011 0.959052
vt 0.956629 0.930229
vt 0.967151 0.962506
vt 0.972273 0.927146
vt 0.980824 0.957598
vt 0.971903 0.886133
vt 0.976723 0.910344
vt 0.985760 0.949282
vt 0.971085 0.873573
vt 0.962600 0.849827
vt 0.977627 0.850145
vt 0.960787 0.831507
vt 0.974756 0.830928
vt 0.962323 0.809531
vt 0.973874 0.805672
vt 0.857283 0.198593
vt 0.837086 0.208129
vt 0.833377 0.191075
vt 0.848754 0.192794
vt 0.819563 0.202336
vt 0.818532 0.190951
vt 0.906561 0.972380
vt 0.893441 0.971415
vt 0.948087 0.967990
vt 0.921401 0.971176
vt 0.935192 0.970138
vt 0.980897 0.098448
vt 0.945823 0.121683
vt 0.935329 0.112620
vt 0.966632 0.088404
vt 0.924559 0.135733
vt 0.915275 0.144721
vt 0.905224 0.137701
vt 0.916094 0.126105
vt 0.897192 0.160501
vt 0.889512 0.154912
vt 0.849008 0.053056
vt 0.865711 0.063153
vt 0.825995 0.040536
vt 0.809707 0.033888
vt 0.860063 0.100181
vt 0.851718 0.132161
vt 0.853604 0.148733
vt 0.864023 0.143374
vt 0.856198 0.151846
vt 0.871340 0.107244
vt 0.878440 0.070425
vt 0.890710 0.079858
vt 0.891666 0.047872
vt 0.900486 0.060481
vt 0.826627 0.019260
vt 0.879358 0.033646
vt 0.855825 0.018158
vt 0.918455 0.059644
vt 0.909799 0.083464
vt 0.947084 0.066714
vt 0.927372 0.091800
vt 0.903715 0.117007
vt 0.891072 0.109567
vt 0.893802 0.131343
vt 0.881769 0.124145
vt 0.882689 0.152115
vt 0.874855 0.147017
vt 0.887624 0.176995
vt 0.879139 0.168088
vt 0.859167 0.160694
vt 0.861997 0.172008
vt 0.866395 0.189694
vt 0.837870 0.149135
vt 0.822265 0.177747
vt 0.831526 0.154619
vt 0.824409 0.167688
vt 0.826753 0.160637
vt 0.837953 0.171610
vt 0.837677 0.180616
vt 0.839895 0.163427
vt 0.843474 0.158623
vt 0.846588 0.154764
vn 0.6750 0.6635 -0.3226
vn 0.7714 0.5854 -0.2495
vn 0.4209 0.6525 -0.6301
vn 0.3269 0.6159 -0.7168
vn 0.2577 0.5734 -0.7776
vn 0.2852 0.6537 -0.7009
vn 0.1010 0.4682 -0.8778
vn -0.0615 0.5215 -0.8510
vn 0.7914 0.4497 -0.4140
vn 0.6476 0.4431 -0.6199
vn 0.7676 0.1239 -0.6288
vn 0.7449 0.1787 -0.6428
vn 0.6617 0.5808 -0.4741
vn 0.6858 0.3019 -0.6622
vn 0.8717 0.4901 0.0050
vn 0.7855 0.6188 -0.0030
vn 0.6677 0.6517 -0.3596
vn 0.8093 0.5107 -0.2900
vn 0.2855 0.3630 -0.8869
vn 0.2140 0.3464 -0.9133
vn -0.0267 0.0221 -0.9994
vn -0.0663 0.0349 -0.9972
vn 0.3480 0.1852 -0.9190
vn -0.3154 0.1956 -0.9286
vn -0.2441 -0.0748 -0.9668
vn -0.4531 0.2738 -0.8483
vn -0.1994 0.6514 -0.7321
vn -0.4934 0.2968 -0.8176
vn -0.1894 0.5085 -0.8399
vn -0.6125 0.2534 -0.7487
vn -0.4262 0.2951 -0.8551
vn 0.1084 0.9113 -0.3970
vn 0.2663 0.8852 -0.3814
vn 0.4210 0.9003 -0.1105
vn 0.5833 0.8084 -0.0784
vn 0.6059 0.7903 -0.0907
vn 0.7282 0.6589 -0.1885
vn 0.6827 0.6857 -0.2526
vn 0.7658 0.5812 -0.2751
vn 0.6294 0.7771 -0.0013
vn 0.6351 0.7202 -0.2791
vn 0.8330 0.5130 -0.2073
vn 0.8952 0.4426 -0.0516
vn 0.6580 0.7136 -0.2406
vn 0.7147 0.6226 -0.3187
vn 0.7579 0.5799 -0.2989
vn 0.3885 0.8834 -0.2620
vn 0.4411 0.8716 -0.2137
vn 0.2293 0.9654 -0.1240
vn 0.0816 0.9923 0.0933
vn 0.7077 0.5089 0.4901
vn 0.6625 0.5361 0.5231
vn 0.7113 0.4720 0.5208
vn 0.7847 0.4201 0.4558
vn 0.6826 0.6247 0.3791
vn 0.4802 0.6430 0.5966
vn -0.1785 0.7375 0.6513
vn 0.3407 0.4594 0.8202
vn 0.4108 0.3444 0.8442
vn 0.6617 0.3113 0.6820
vn 0.5608 0.4204 0.7133
vn 0.5100 0.3873 0.7680
vn 0.5008 0.3774 0.7789
vn 0.2014 0.2768 0.9395
vn 0.3993 0.2746 0.8747
vn 0.4186 0.0078 0.9081
vn -0.1348 0.3605 0.9229
vn -0.0786 0.1825 0.9800
vn 0.0649 0.3373 0.9391
vn 0.2414 0.1147 0.9636
vn 0.1628 0.3127 0.9358
vn -0.0489 0.3423 0.9383
vn 0.3252 0.5547 0.7659
vn 0.3765 0.2492 0.8922
vn 0.0184 0.4410 0.8973
vn 0.1723 0.4277 0.8874
vn -0.0468 0.7761 0.6289
vn 0.1693 0.4361 0.8838
vn -0.0999 0.2804 0.9546
vn 0.2887 0.6886 0.6652
vn 0.5754 0.8101 -0.1120
vn 0.3928 0.9194 0.0175
vn 0.2885 0.8248 -0.4863
vn 0.4990 0.8420 -0.2047
vn 0.2468 0.7707 -0.5874
vn 0.0819 0.7327 -0.6756
vn 0.1325 0.6401 -0.7568
vn 0.4328 0.6319 -0.6429
vn 0.4030 0.6690 -0.6244
vn 0.5513 0.7154 -0.4292
vn 0.6796 0.7165 -0.1577
vn 0.6151 0.7701 0.1690
vn 0.0781 0.8415 0.5346
vn 0.5462 0.5502 0.6316
vn 0.4542 0.3243 0.8297
vn 0.1295 0.7779 0.6149
vn 0.3744 0.2217 0.9004
vn 0.1921 0.2732 0.9426
vn 0.0011 0.3376 0.9413
vn -0.3148 0.1105 0.9427
vn -0.1887 0.2361 0.9532
vn -0.2842 0.1733 0.9429
vn -0.4454 0.2627 0.8559
vn -0.0818 0.0988 0.9917
vn 0.2402 0.1347 0.9613
vn -0.1981 0.4118 0.8895
vn -0.3956 0.3848 0.8339
vn -0.2945 0.2293 0.9277
vn -0.1924 0.3830 0.9034
vn -0.1291 0.4394 0.8889
vn -0.0539 0.4103 0.9103
vn -0.0225 0.4542 0.8906
vn -0.7380 0.1523 0.6573
vn -0.5759 0.3621 0.7329
vn -0.3944 0.4206 0.8170
vn -0.7243 -0.0864 0.6840
vn -0.1878 -0.1138 0.9756
vn -0.6844 -0.2510 0.6845
vn 0.1537 0.0258 0.9878
vn -0.6135 -0.1096 0.7820
vn 0.2910 0.6584 0.6941
vn -0.3324 0.8392 0.4304
vn 0.7872 0.5280 0.3186
vn 0.7279 0.6805 0.0837
vn 0.5757 0.6590 0.4841
vn 0.3562 -0.1033 0.9286
vn 0.3713 -0.1176 0.9210
vn -0.1816 0.0697 0.9809
vn 0.1646 -0.2175 0.9621
vn -0.0858 -0.1743 0.9809
vn -0.9643 0.1905 0.1841
vn -0.9667 0.1720 0.1894
vn -0.9124 -0.2156 0.3479
vn -0.9667 0.0586 0.2489
vn -0.9093 -0.2417 0.3386
vn -0.6034 0.1613 -0.7809
vn -0.6987 0.1843 -0.6913
vn -0.4695 0.1017 -0.8770
vn -0.3501 0.0633 -0.9345
vn -0.7299 0.1740 -0.6610
vn -0.5862 0.2444 -0.7724
vn -0.3801 0.5846 -0.7168
vn -0.9947 -0.0357 -0.0961
vn -0.7064 0.6044 -0.3682
vn -0.9926 0.0920 -0.0786
vn -0.8260 0.2054 -0.5248
vn -0.9503 0.2436 0.1938
vn -0.8272 0.2015 -0.5245
vn -0.9500 0.1972 0.2419
vn -0.5060 -0.1330 -0.8522
vn -0.7150 0.0923 -0.6930
vn -0.6203 -0.0244 -0.7840
vn -0.7938 0.0923 0.6011
vn -0.7974 0.1498 0.5846
vn -0.9702 0.0972 0.2218
vn -0.9591 0.1249 0.2537
vn -0.9490 -0.0091 0.3152
vn -0.8756 0.0551 0.4798
vn -0.9244 -0.2442 0.2930
vn -0.9266 -0.2085 0.3130
vn -0.9628 -0.1603 0.2176
vn -0.9569 -0.1318 0.2585
vn -0.9451 -0.0475 0.3233
vn -0.6148 0.7840 -0.0857
vn -0.5390 0.8416 0.0335
vn 0.3840 0.8504 -0.3596
vn 0.5611 0.8250 0.0663
vn 0.3801 0.8461 -0.3736
vn 0.4613 0.8767 -0.1359
vn 0.3745 0.8689 -0.3236
vn 0.4821 0.8451 -0.2307
vn 0.6104 0.7751 -0.1627
vn 0.4042 0.8550 -0.3248
vn 0.3778 0.8699 -0.3170
vn 0.3029 0.8804 -0.3649
usemtl Material.002
s 1
f 1/1/1 2/2/2 4/3/3 3/4/4
f 3/4/4 4/3/3 6/5/5 5/6/6
f 5/6/6 6/5/5 8/7/7 7/8/8
f 4/3/3 2/2/2 9/9/9 10/10/10
f 10/10/10 9/9/9 11/11/11 12/12/12
f 11/11/11 9/9/9 13/13/13 14/14/14
f 9/9/9 2/2/2 15/15/15 16/16/16
f 16/16/16 15/15/15 17/17/17 18/18/18
f 17/17/17 15/15/15 2/2/2 1/1/1
f 4/3/3 10/10/10 21/19/19 19/20/20
f 6/5/5 4/3/3 19/20/20 8/7/7
f 8/7/7 19/20/20 23/21/21 20/22/22
f 21/19/19 10/10/10 12/12/12 24/23/23
f 19/20/20 21/19/19 24/23/23 23/21/21
f 7/8/8 8/7/7 20/22/22 22/24/24
f 22/24/24 20/22/22 23/21/21 26/25/25
f 7/8/8 22/24/24 27/26/26 25/27/27
f 25/27/27 27/26/26 29/28/28 28/29/29
f 28/29/29 29/28/28 31/30/30 30/31/31
f 5/6/6 7/8/8 25/27/27 32/32/32
f 3/4/4 5/6/6 32/32/32 33/33/33
f 17/17/17 1/1/1 34/34/34 36/35/35
f 1/1/1 3/4/4 33/33/33 34/34/34
f 14/14/14 13/13/13 35/36/36 37/37/37
f 37/37/37 35/36/36 38/38/38 39/39/39
f 38/38/38 35/36/36 40/40/40 41/41/41
f 41/41/41 40/40/40 16/16/16 18/18/18
f 16/16/16 40/40/40 13/13/13 9/9/9
f 13/13/13 40/40/40 35/36/36
f 39/39/39 38/38/38 44/42/42 45/43/43
f 18/18/18 17/17/17 42/44/44 43/45/45
f 41/41/41 18/18/18 43/45/45 46/46/46
f 38/38/38 41/41/41 46/46/46 44/42/42
f 42/44/44 17/17/17 47/47/47 48/48/48
f 48/48/48 47/47/47 49/49/49 50/50/50
f 46/46/46 43/45/45 51/51/51 54/52/52
f 44/42/42 46/46/46 54/52/52 52/53/53
f 45/43/43 44/42/42 52/53/53 53/54/54
f 43/45/45 42/44/44 51/51/51
f 42/44/44 48/48/48 56/55/55 51/51/51
f 56/55/55 48/48/48 50/50/50 57/56/56
f 57/56/56 50/50/50 55/57/57 58/58/58
f 57/59/56 58/60/58 60/61/59 59/62/60
f 56/63/55 57/59/56 59/62/60 51/64/51
f 54/65/52 51/64/51 59/62/60 63/66/61
f 52/67/53 54/65/52 63/66/61 61/68/62
f 53/69/54 52/67/53 61/68/62 62/70/63
f 63/66/61 59/62/60 60/61/59 67/71/64
f 62/70/63 61/68/62 65/72/65 66/73/66
f 61/68/62 63/66/61 67/71/64 65/72/65
f 58/60/58 55/74/57 64/75/67 60/61/59
f 60/61/59 64/75/67 69/76/68 67/71/64
f 65/72/65 67/71/64 70/77/69 68/78/70
f 67/71/64 69/76/68 72/79/71 70/77/69
f 70/77/69 72/79/71 74/80/72 73/81/73
f 68/78/70 70/77/69 73/81/73 71/82/74
f 69/76/68 64/75/67 76/83/75 77/84/76
f 64/75/67 55/74/57 75/85/77 76/83/75
f 77/84/76 76/83/75 79/86/78 80/87/79
f 76/83/75 75/85/77 78/88/80 79/86/78
f 69/76/68 77/84/76 74/80/72 72/79/71
f 77/84/76 80/87/79 74/80/72
f 50/50/50 49/49/49 81/89/81 82/90/82
f 17/17/17 36/35/35 47/47/47
f 49/49/49 47/47/47 36/35/35 34/34/34
f 34/34/34 33/33/33 83/91/83 84/92/84
f 33/33/33 32/32/32 86/93/85 83/91/83
f 32/32/32 25/27/27 28/29/29 86/93/85
f 34/34/34 84/92/84 81/89/81 49/49/49
f 28/29/29 30/31/31 85/94/86 87/95/87
f 86/93/85 28/29/29 87/95/87 91/96/88
f 83/91/83 86/93/85 91/96/88 89/97/89
f 84/92/84 83/91/83 89/97/89 90/98/90
f 81/89/81 84/92/84 90/98/90 88/99/91
f 82/90/82 81/89/81 88/99/91 158/100/92
f 93/101/93 82/90/82 158/100/92 94/102/94
f 93/101/93 94/102/94 96/103/95 95/104/96
f 95/105/96 96/106/95 98/107/97 97/108/98
f 93/101/93 95/104/96 55/57/57 50/50/50
f 82/90/82 93/101/93 50/50/50
f 55/74/57 95/105/96 75/85/77
f 95/105/96 97/108/98 78/88/80 75/85/77
f 80/87/79 79/86/78 100/109/99 101/110/100
f 79/86/78 78/88/80 97/108/98 100/109/99
f 80/87/79 101/110/100 103/111/101 102/112/102
f 74/80/72 80/87/79 102/112/102 99/113/103
f 71/82/74 73/81/73 105/114/104 104/115/105
f 73/81/73 74/80/72 106/116/106 105/114/104
f 106/116/106 74/80/72 99/113/103 109/117/107
f 105/114/104 106/116/106 109/117/107 108/118/108
f 109/117/107 99/113/103 102/112/102 111/119/109
f 108/118/108 109/117/107 111/119/109 110/120/110
f 111/119/109 102/112/102 103/111/101 113/121/111
f 110/120/110 111/119/109 113/121/111 112/122/112
f 113/121/111 103/111/101 114/123/113 116/124/114
f 112/122/112 113/121/111 116/124/114 115/125/115
f 103/111/101 101/110/100 107/126/116 114/123/113
f 107/126/116 101/110/100 117/127/117 118/128/118
f 118/128/118 117/127/117 119/129/119 92/130/120
f 92/130/120 119/129/119 121/131/121 122/132/122
f 121/133/121 119/134/119 120/135/123 123/136/124
f 120/135/123 119/134/119 98/137/97 125/138/125
f 125/138/125 98/137/97 96/103/95 94/102/94
f 119/129/119 117/127/117 97/108/98 98/107/97
f 97/108/98 117/127/117 101/110/100 100/109/99
f 68/78/70 71/82/74 127/139/126 126/140/127
f 108/118/108 110/120/110 130/141/128
f 71/82/74 104/115/105 128/142/129 127/139/126
f 65/72/65 68/78/70 126/140/127 66/73/66
f 105/114/104 108/118/108 130/141/128 129/143/130
f 104/115/105 105/114/104 129/143/130 128/142/129
f 115/144/115 116/145/114 133/146/131 132/147/132
f 114/148/113 107/149/116 131/150/133 124/151/134
f 107/149/116 118/152/118 134/153/135 131/150/133
f 116/145/114 114/148/113 124/151/134 133/146/131
f 31/30/30 29/28/28 137/154/136 138/155/137
f 29/28/28 27/26/26 136/156/138 137/154/136
f 27/26/26 22/24/24 135/157/139 136/156/138
f 22/24/24 26/25/25 135/157/139
f 30/31/31 31/30/30 140/158/140 139/159/141
f 30/31/31 139/159/141 142/160/142 85/94/86
f 142/160/142 139/159/141 141/161/143 143/162/144
f 141/161/143 139/159/141 140/158/140 144/163/145
f 31/30/30 138/155/137 146/164/146 140/158/140
f 140/158/140 146/164/146 147/165/147 144/163/145
f 147/165/147 146/164/146 151/166/148 152/167/149
f 136/156/138 135/157/139 26/25/25 148/168/150
f 146/164/146 138/155/137 150/169/151 151/166/148
f 137/154/136 136/156/138 148/168/150 149/170/152
f 138/155/137 137/154/136 149/170/152 150/169/151
f 147/165/147 152/167/149 153/171/153 145/172/154
f 145/172/154 153/171/153 155/173/155 154/174/156
f 154/174/156 155/173/155 132/147/132 133/146/131
f 156/175/157 154/174/156 133/146/131 124/151/134
f 144/163/145 147/165/147 145/172/154 157/176/158
f 157/176/158 145/172/154 154/174/156 156/175/157
f 157/176/158 156/175/157 160/177/159 159/178/160
f 156/175/157 124/151/134 131/150/133 160/177/159
f 144/163/145 157/176/158 159/178/160
f 160/177/159 131/150/133 134/153/135 163/179/161
f 144/163/145 159/178/160 162/180/162 141/161/143
f 159/178/160 160/177/159 163/179/161 162/180/162
f 134/153/135 118/152/118 92/181/120 161/182/163
f 141/161/143 162/180/162 165/183/164 143/162/144
f 162/180/162 163/179/161 166/184/165 165/183/164
f 163/179/161 134/153/135 161/182/163 166/184/165
f 92/181/120 122/185/122 166/184/165 161/182/163
f 91/96/88 87/95/87 85/94/86 169/186/166
f 94/102/94 158/100/92 170/187/167 125/138/125
f 89/97/89 91/96/88 169/186/166 167/188/168
f 158/100/92 88/99/91 164/189/169 170/187/167
f 90/98/90 89/97/89 167/188/168 168/190/170
f 88/99/91 90/98/90 168/190/170 164/189/169
f 170/187/167 164/189/169 171/191/171 175/192/172
f 164/189/169 168/190/170 173/193/173 171/191/171
f 168/190/170 167/188/168 172/194/174 173/193/173
f 169/186/166 85/94/86 142/160/142 174/195/175
f 167/188/168 169/186/166 174/195/175 172/194/174
f 125/138/125 170/187/167 175/192/172 120/135/123
f 143/162/144 165/183/164 174/195/175 142/160/142
f 174/195/175 165/183/164 173/193/173 172/194/174
f 165/183/164 166/184/165 171/191/171 173/193/173
f 175/192/172 171/191/171 166/184/165 122/185/122
f 175/192/172 123/136/124 120/135/123
f 121/133/121 123/136/124 175/192/172 122/185/122
